<svg width="69" height="34" viewBox="0 0 69 34" fill="none" xmlns="http://www.w3.org/2000/svg">
<path d="M39.9337 33.2935C40.3817 33.3146 40.7017 33.3146 40.8937 33.3146C42.387 33.3146 43.603 33.0373 44.7123 32.44C46.9737 31.2026 48.339 28.7493 48.339 25.9973C48.339 23.5013 47.2083 21.368 45.2457 20.1733C43.923 19.384 42.323 19 40.2323 19H34.707V33.2293H38.931V23.0747H40.3817C41.6617 23.0747 42.4937 23.288 43.0697 23.7573C43.667 24.248 44.0083 25.0586 44.0083 25.9973C44.0083 26.9786 43.603 27.9173 42.9843 28.4293C42.4083 28.8773 41.5337 29.0906 40.3177 29.0906H39.9337V33.2935Z" fill="#3988CD"/>
<path d="M25.064 19V23.096H26.6427L25.576 25.912C26.3227 25.9332 26.728 25.9973 27.1547 26.1893C27.88 26.5093 28.3067 27.128 28.3067 27.8746C28.3067 28.8773 27.5386 29.6667 26.5786 29.6667C26.1093 29.6667 25.6613 29.496 25 29.0907V33.1227C25.896 33.464 26.5573 33.592 27.432 33.592C30.376 33.592 32.6586 31.4587 32.6586 28.7067C32.6586 27.7253 32.3813 26.744 31.8907 25.9973C31.5067 25.4 31.1227 25.0373 30.2693 24.4613L32.5947 19H25.064Z" fill="#DB5679"/>
<path d="M43 16H46.697V9.14912C46.697 8.47369 46.9584 8.16814 47.5187 8.16814C48.0602 8.16814 48.3029 8.47369 48.3029 9.14912V16H52V9.14912C52 7.94299 51.776 7.17106 51.2344 6.46346C50.5249 5.53072 49.2178 5 47.6681 5C44.8299 5 43 6.59211 43 9.03655V16Z" fill="#26BB9E"/>
<path d="M5.45322 16.2985C5.9012 16.3197 6.22121 16.3197 6.41321 16.3197C7.90654 16.3197 9.12251 16.0424 10.2318 15.445C12.4932 14.2077 13.8585 11.7544 13.8585 9.00238C13.8585 6.50638 12.7278 4.37305 10.7652 3.17839C9.44252 2.38905 7.84248 2.00504 5.75183 2.00504H0.226562V16.2344H4.45056V6.0797H5.90121C7.18123 6.0797 8.0132 6.29303 8.5892 6.76238C9.18652 7.25305 9.52783 8.06371 9.52783 9.00238C9.52783 9.98371 9.12252 10.9224 8.50385 11.4344C7.92785 11.8824 7.05318 12.0957 5.83719 12.0957H5.45322V16.2985ZM20.0665 2.00521H15.8425V16.2345H20.0665V2.00521ZM29.5811 1.94123C29.0051 1.72791 28.4718 1.64258 27.8531 1.64258C25.1865 1.64258 23.0105 3.88255 23.0105 6.63455C23.0105 7.70122 23.3307 8.78923 23.9492 9.9199C24.5465 10.9439 24.5465 10.9652 24.5465 11.2852C24.5465 11.9039 23.9918 12.3946 23.2879 12.3946C22.9039 12.3946 22.6478 12.3092 22.1785 12.0106V16.1066C22.9038 16.4692 23.4585 16.5972 24.2052 16.5972C27.0852 16.5972 29.2825 14.4212 29.2825 11.5626C29.2825 10.6026 29.0478 9.81324 28.4078 8.7039C27.7465 7.5519 27.7039 7.46656 27.7039 7.03989C27.7039 6.39989 28.2372 5.84524 28.8558 5.84524C29.069 5.84524 29.2183 5.88789 29.5811 5.99455V1.94123ZM39.2878 7.5519H36.9625C36.0665 7.5519 35.7678 7.35989 35.7678 6.80523C35.7678 6.29323 36.0879 6.0799 36.8558 6.0799H39.5652V2.00521H35.8745C33.0585 2.00521 31.4158 3.56256 31.4158 6.29323V11.8826C31.4158 13.2906 31.8638 14.3786 32.7385 15.1466C33.6558 15.9572 34.5731 16.2346 36.2371 16.2346H39.5652V12.1599H36.7065C36.0024 12.1599 35.9812 12.1599 35.7892 12.0532C35.6183 11.9252 35.4906 11.7119 35.4906 11.4559C35.4906 11.2212 35.5972 11.0079 35.7465 10.8799C35.9385 10.7519 35.9812 10.7306 36.5145 10.7306H39.2878V7.5519Z" fill="white"/>
<path d="M61.6682 16.5759C65.6149 16.2986 68.6442 13.0772 68.6442 9.13058C68.6442 4.99192 65.3376 1.64258 61.2202 1.64258C57.0602 1.64258 53.7109 4.97058 53.7109 9.10924C53.7109 13.0772 56.6762 16.2346 60.6869 16.5759V12.3519C59.1295 12.0746 58.0416 10.7306 58.0416 9.10924C58.0416 7.31724 59.4496 5.84527 61.1776 5.84527C62.9056 5.84527 64.3135 7.31724 64.3135 9.10924C64.3135 10.7306 63.2042 12.0959 61.6682 12.3519V16.5759Z" fill="#F7DD3D"/>
<path d="M43.8134 4.69332C44.304 3.79732 44.6454 3.47733 45.136 3.47733C45.4562 3.47733 45.8187 3.58397 46.608 3.90398C48.1014 4.52264 48.4 4.60797 48.9973 4.60797C50.5333 4.60797 51.4507 3.75464 52.3467 1.51464L50.5334 0C50.064 0.853334 49.7014 1.19465 49.168 1.19465C48.8694 1.19465 48.7627 1.15199 47.6747 0.725328C46.3733 0.213331 45.7974 0.0426767 45.2854 0.0426767C43.8561 0.0426767 42.832 1.02398 42 3.15731L43.8134 4.69332Z" fill="#26BB9E"/>
</svg>
