<svg width="59" height="64" viewBox="0 0 59 64" fill="none" xmlns="http://www.w3.org/2000/svg">
<path d="M7 1.5H52C55.0376 1.5 57.5 3.96243 57.5 7V47.1866C57.5 49.4646 56.0957 51.5069 53.9686 52.3223L31.0117 61.1224C29.724 61.6161 28.2977 61.6079 27.0157 61.0995L4.97256 52.3582C2.87641 51.527 1.5 49.5005 1.5 47.2456V7C1.5 3.96243 3.96243 1.5 7 1.5Z" fill="#3988CD" stroke="#295A85" stroke-width="3"/>
<path d="M28.4167 43.7556V32.9098L18.9167 27.4077V38.2535L28.4167 43.7556ZM31.5833 43.7556L41.0833 38.2535V27.4077L31.5833 32.9098V43.7556ZM30 30.1785L39.3812 24.7556L30 19.3327L20.6187 24.7556L30 30.1785ZM17.3333 41.0244C16.8319 40.7341 16.4427 40.3514 16.1656 39.8764C15.8885 39.4014 15.75 38.8737 15.75 38.2931V25.7056C15.75 25.125 15.8885 24.5973 16.1656 24.1223C16.4427 23.6473 16.8319 23.2646 17.3333 22.9744L28.4167 16.6014C28.9181 16.3112 29.4458 16.166 30 16.166C30.5542 16.166 31.0819 16.3112 31.5833 16.6014L42.6667 22.9744C43.1681 23.2646 43.5573 23.6473 43.8344 24.1223C44.1115 24.5973 44.25 25.125 44.25 25.7056V38.2931C44.25 38.8737 44.1115 39.4014 43.8344 39.8764C43.5573 40.3514 43.1681 40.7341 42.6667 41.0244L31.5833 47.3973C31.0819 47.6876 30.5542 47.8327 30 47.8327C29.4458 47.8327 28.9181 47.6876 28.4167 47.3973L17.3333 41.0244Z" fill="#142D43"/>
</svg>
