<svg width="65" height="32" viewBox="0 0 65 32" fill="none" xmlns="http://www.w3.org/2000/svg">
<path d="M10.4747 7.63734C10.2827 9.62134 9.17332 10.752 7.42399 10.752C5.63199 10.752 4.33066 9.40801 4.33066 7.50934C4.33066 5.61068 5.65333 4.20269 7.44533 4.20269C8.87466 4.20269 9.83466 4.99202 10.3467 6.54935L14.8693 6.22933C14.4853 4.544 14.08 3.648 13.248 2.624C11.904 0.960005 9.83465 0 7.55199 0C3.30666 0 0 3.28532 0 7.53065C0 11.7547 3.22133 14.9547 7.50933 14.9547C11.6267 14.9547 14.336 12.3306 14.912 7.76532L10.4747 7.63734ZM24 14.9333C27.9467 14.656 30.976 11.4347 30.976 7.488C30.976 3.34934 27.6693 2.88486e-05 23.552 2.88486e-05C19.392 2.88486e-05 16.0427 3.328 16.0427 7.46667C16.0427 11.4347 19.008 14.592 23.0187 14.9333V10.7093C21.4613 10.432 20.3733 9.088 20.3733 7.46667C20.3733 5.67467 21.7813 4.20269 23.5093 4.20269C25.2373 4.20269 26.6453 5.67467 26.6453 7.46667C26.6453 9.088 25.536 10.4533 24 10.7093V14.9333ZM38.1867 10.8373L39.872 14.592H44.3093L41.8773 8.74667C43.1573 7.74401 43.7546 6.57067 43.7546 5.09867C43.7546 3.79733 43.1786 2.45336 42.24 1.60002C41.344 0.789357 40 0.362693 38.3787 0.362693H32.96V14.592H37.184V4.20269H37.9307C38.464 4.20269 38.7627 4.24534 38.976 4.352C39.296 4.52268 39.488 4.864 39.488 5.22667C39.488 5.952 39.0613 6.336 38.1867 6.35734V10.8373Z" fill="white"/>
<path d="M52.0956 4.43745H55.3169V0.362793H44.6289V4.43745H47.8716V14.5921H52.0956V4.43745Z" fill="#26BB9E"/>
<path d="M64.4696 5.90945H62.1443C61.2483 5.90945 60.9497 5.71744 60.9497 5.16278C60.9497 4.65078 61.2697 4.43745 62.0376 4.43745H64.747V0.362793H61.0563C58.2403 0.362793 56.5977 1.92011 56.5977 4.65078V10.2401C56.5977 11.6481 57.0456 12.7361 57.9203 13.5041C58.8376 14.3148 59.755 14.5921 61.419 14.5921H64.747V10.5174H61.8883C61.1843 10.5174 61.163 10.5174 60.971 10.4108C60.8003 10.2828 60.6723 10.0695 60.6723 9.81346C60.6723 9.57879 60.779 9.36544 60.9283 9.23744C61.1203 9.10943 61.163 9.08813 61.6963 9.08813H64.4696V5.90945Z" fill="#F6DD3D"/>
<path d="M8 16.6932V25.8239C8 27.5732 8.42667 28.7039 9.408 29.6639C10.2827 30.4959 11.4347 30.9225 12.8853 30.9225H14.016V26.8052C13.1413 26.8052 12.928 26.7626 12.6507 26.5492C12.3306 26.3146 12.224 25.9732 12.224 25.1412V16.6932H8ZM20.288 27.5305V23.7759H19.3706V22.0052C19.3706 20.9386 19.648 20.5332 20.3733 20.5332C20.7146 20.5332 20.992 20.7039 21.12 20.9599C21.248 21.1945 21.2693 21.3652 21.2693 22.0052V30.9225H25.4933V21.7279C25.4933 20.0639 25.216 18.8906 24.64 18.0586C23.872 16.9706 22.3786 16.3306 20.608 16.3306C18.5813 16.3306 16.9173 17.1199 16 18.4852C15.3813 19.4239 15.1466 20.3839 15.1466 21.8772V30.9225H19.3706V27.5305H20.288ZM34.752 16.6292C34.176 16.4159 33.6427 16.3306 33.024 16.3306C30.3573 16.3306 28.1813 18.5706 28.1813 21.3226C28.1813 22.3892 28.5013 23.4772 29.12 24.6079C29.7173 25.6319 29.7173 25.6532 29.7173 25.9732C29.7173 26.5919 29.1626 27.0825 28.4586 27.0825C28.0746 27.0825 27.8186 26.9972 27.3493 26.6985V30.7945C28.0746 31.1572 28.6293 31.2852 29.376 31.2852C32.256 31.2852 34.4533 29.1092 34.4533 26.2506C34.4533 25.2906 34.2186 24.5012 33.5787 23.3919C32.9173 22.2399 32.8747 22.1545 32.8747 21.7279C32.8747 21.0879 33.408 20.5332 34.0267 20.5332C34.24 20.5332 34.3893 20.5759 34.752 20.6826V16.6292ZM44.4586 22.2399H42.1333C41.2373 22.2399 40.9387 22.0479 40.9387 21.4932C40.9387 20.9812 41.2587 20.7679 42.0266 20.7679H44.736V16.6932H41.0453C38.2293 16.6932 36.5867 18.2506 36.5867 20.9812V26.5705C36.5867 27.9785 37.0346 29.0666 37.9093 29.8345C38.8266 30.6452 39.744 30.9225 41.408 30.9225H44.736V26.8479H41.8773C41.1733 26.8479 41.152 26.8479 40.96 26.7412C40.7893 26.6132 40.6613 26.3999 40.6613 26.1439C40.6613 25.9092 40.768 25.6959 40.9173 25.5679C41.1093 25.4399 41.152 25.4186 41.6853 25.4186H44.4586V22.2399ZM52.3947 27.1679L54.08 30.9225H58.5173L56.0853 25.0772C57.3653 24.0745 57.9626 22.9012 57.9626 21.4292C57.9626 20.1279 57.3866 18.7839 56.448 17.9306C55.552 17.1199 54.208 16.6932 52.5866 16.6932H47.168V30.9225H51.392V20.5332H52.1386C52.672 20.5332 52.9706 20.5759 53.184 20.6825C53.504 20.8532 53.696 21.1945 53.696 21.5572C53.696 22.2825 53.2693 22.6665 52.3947 22.6879V27.1679Z" fill="white"/>
<path d="M44.4579 22.24H42.1326C41.2366 22.24 40.9379 22.048 40.9379 21.4933C40.9379 20.9813 41.2579 20.768 42.0259 20.768H44.7353V16.6934H41.0446C38.2286 16.6934 36.5859 18.2507 36.5859 20.9813V26.5707C36.5859 27.9787 37.0339 29.0667 37.9086 29.8347C38.8259 30.6453 39.7433 30.9227 41.4073 30.9227H44.7353V26.848H41.8766C41.1726 26.848 41.1513 26.848 40.9593 26.7414C40.7886 26.6133 40.6606 26.4 40.6606 26.144C40.6606 25.9094 40.7673 25.696 40.9166 25.568C41.1086 25.44 41.1513 25.4187 41.6846 25.4187H44.4579V22.24Z" fill="#DB5679"/>
<path d="M52.3946 27.168L54.08 30.9227H58.5173L56.0853 25.0773C57.3653 24.0747 57.9626 22.9013 57.9626 21.4293C57.9626 20.128 57.3866 18.784 56.448 17.9307C55.552 17.12 54.208 16.6934 52.5866 16.6934H47.168V30.9227H51.392V20.5334H52.1386C52.672 20.5334 52.9706 20.576 53.184 20.6827C53.504 20.8533 53.696 21.1947 53.696 21.5573C53.696 22.2827 53.2693 22.6667 52.3946 22.688V27.168Z" fill="#3988CD"/>
</svg>
