<svg width="59" height="64" viewBox="0 0 59 64" fill="none" xmlns="http://www.w3.org/2000/svg">
<path d="M7 1.5H52C55.0376 1.5 57.5 3.96243 57.5 7V47.1866C57.5 49.4646 56.0957 51.5069 53.9686 52.3223L31.0117 61.1224C29.724 61.6161 28.2977 61.6079 27.0157 61.0995L4.97256 52.3582C2.87641 51.527 1.5 49.5005 1.5 47.2456V7C1.5 3.96243 3.96243 1.5 7 1.5Z" fill="#DB5679" stroke="#96475B" stroke-width="3"/>
<g clip-path="url(#clip0_71_2)">
<path d="M25.5 46C24.25 46 23.1875 45.5557 22.3125 44.6672C21.4375 43.7787 21 42.6997 21 41.4304C21 40.1611 21.4375 39.0821 22.3125 38.1936C23.1875 37.305 24.25 36.8608 25.5 36.8608C26.75 36.8608 27.8125 37.305 28.6875 38.1936C29.5625 39.0821 30 40.1611 30 41.4304C30 42.6997 29.5625 43.7787 28.6875 44.6672C27.8125 45.5557 26.75 46 25.5 46ZM32.2125 40.7069C32.0625 39.3106 31.55 38.0793 30.675 37.0131C29.8 35.9468 28.7125 35.2233 27.4125 34.8425L31.3875 30.768H20.85C20.05 30.768 19.375 30.4887 18.825 29.9302C18.275 29.3717 18 28.6862 18 27.8739C18 27.3661 18.1313 26.8901 18.3938 26.4459C18.6563 26.0016 19 25.6398 19.425 25.3606L37.65 14.2793C38.1 14 38.575 13.9302 39.075 14.0698C39.575 14.2094 39.9625 14.5077 40.2375 14.9647C40.5125 15.4217 40.5813 15.8977 40.4438 16.3927C40.3063 16.8877 40.025 17.2749 39.6 17.5541L25.5 26.1983H39.15C39.95 26.1983 40.625 26.4776 41.175 27.0361C41.725 27.5946 42 28.2801 42 29.0924C42 29.5494 41.9438 30 41.8313 30.4443C41.7188 30.8885 41.5 31.2757 41.175 31.6057L32.2125 40.7069Z" fill="#6B2639"/>
</g>
<defs>
<clipPath id="clip0_71_2">
<rect width="39" height="35" fill="white" transform="translate(10 11)"/>
</clipPath>
</defs>
</svg>
