<svg width="674" height="108" viewBox="0 0 674 108" fill="none" xmlns="http://www.w3.org/2000/svg">
<rect x="128" y="100" width="17" height="11" transform="rotate(-90 128 100)" fill="white"/>
<rect x="128" y="21" width="17" height="11" transform="rotate(-90 128 21)" fill="white"/>
<rect x="85" y="47" width="17" height="11" fill="white"/>
<rect x="164" y="47" width="17" height="11" fill="white"/>
<rect x="89" y="71.9805" width="17" height="11" transform="rotate(-30 89 71.9805)" fill="white"/>
<rect x="157.414" y="32.4805" width="17" height="11" transform="rotate(-30 157.414 32.4805)" fill="white"/>
<rect x="104.98" y="91.1387" width="17" height="11" transform="rotate(-60 104.98 91.1387)" fill="white"/>
<rect x="144.48" y="22.7227" width="17" height="11" transform="rotate(-60 144.48 22.7227)" fill="white"/>
<rect x="114.48" y="27.7227" width="17" height="11" transform="rotate(-120 114.48 27.7227)" fill="white"/>
<rect x="153.98" y="96.1387" width="17" height="11" transform="rotate(-120 153.98 96.1387)" fill="white"/>
<rect x="172.137" y="80.6406" width="17" height="11" transform="rotate(-150 172.137 80.6406)" fill="white"/>
<path fill-rule="evenodd" clip-rule="evenodd" d="M150.568 21.9997C133.828 12.3347 112.422 18.0703 102.757 34.8106C93.0925 51.5508 98.8281 72.9565 115.568 82.6215C132.309 92.2864 153.714 86.5508 163.379 69.8106C173.044 53.0703 167.309 31.6647 150.568 21.9997ZM140.569 39.3204C133.394 35.1782 124.22 37.6364 120.078 44.8108C115.936 51.9851 118.394 61.159 125.569 65.3011C132.743 69.4433 141.917 66.9851 146.059 59.8108C150.201 52.6364 147.743 43.4625 140.569 39.3204Z" fill="white"/>
<rect x="103.723" y="41.1406" width="17" height="11" transform="rotate(-150 103.723 41.1406)" fill="white"/>
<rect x="317" y="100" width="17" height="11" transform="rotate(-90 317 100)" fill="white"/>
<rect x="317" y="21" width="17" height="11" transform="rotate(-90 317 21)" fill="white"/>
<rect x="274" y="47" width="17" height="11" fill="white"/>
<rect x="353" y="47" width="17" height="11" fill="white"/>
<rect x="278" y="71.9805" width="17" height="11" transform="rotate(-30 278 71.9805)" fill="white"/>
<rect x="346.414" y="32.4805" width="17" height="11" transform="rotate(-30 346.414 32.4805)" fill="white"/>
<rect x="293.98" y="91.1387" width="17" height="11" transform="rotate(-60 293.98 91.1387)" fill="white"/>
<rect x="333.48" y="22.7227" width="17" height="11" transform="rotate(-60 333.48 22.7227)" fill="white"/>
<rect x="303.48" y="27.7227" width="17" height="11" transform="rotate(-120 303.48 27.7227)" fill="white"/>
<rect x="342.98" y="96.1387" width="17" height="11" transform="rotate(-120 342.98 96.1387)" fill="white"/>
<rect x="361.137" y="80.6406" width="17" height="11" transform="rotate(-150 361.137 80.6406)" fill="white"/>
<path fill-rule="evenodd" clip-rule="evenodd" d="M339.568 21.9997C322.828 12.3347 301.422 18.0703 291.757 34.8106C282.092 51.5508 287.828 72.9565 304.568 82.6215C321.309 92.2864 342.714 86.5508 352.379 69.8106C362.044 53.0703 356.309 31.6647 339.568 21.9997ZM329.569 39.3204C322.394 35.1782 313.22 37.6364 309.078 44.8108C304.936 51.9851 307.394 61.159 314.569 65.3011C321.743 69.4433 330.917 66.9851 335.059 59.8108C339.201 52.6364 336.743 43.4625 329.569 39.3204Z" fill="white"/>
<rect x="292.723" y="41.1406" width="17" height="11" transform="rotate(-150 292.723 41.1406)" fill="white"/>
<path d="M35.372 73.5449L46.7776 99.9073H76.8078L60.3489 58.8659C69.0115 51.8259 73.054 43.5876 73.054 33.2524C73.054 24.1154 69.1558 14.679 62.8033 8.68759C56.7396 2.99571 47.644 0 36.6714 0H0V99.9073H28.5864V26.9615H33.6395C37.2489 26.9615 39.2701 27.261 40.7139 28.0098C42.8796 29.208 44.1789 31.6047 44.1789 34.1511C44.1789 39.2438 41.2914 41.94 35.372 42.0898V73.5449Z" fill="white"/>
<path d="M191 4.0002V64.8133C191 73.9503 193.599 83.3867 197.641 89.6777C203.994 99.2641 215.688 105.405 227.671 105.405C248.173 105.405 264.487 88.4795 264.487 67.3597C264.487 46.5394 248.173 29.4637 228.393 29.4637C227.383 29.4637 226.372 29.4637 224.062 29.7633V58.3725C225.65 57.7733 226.661 57.4737 227.96 57.4737C233.446 57.4737 237.778 62.1171 237.778 67.9588C237.778 73.8004 233.158 78.4438 227.527 78.4438C220.886 78.4438 217.421 73.3511 217.421 63.7648V4L191 4.0002Z" fill="white"/>
<path d="M673.782 5.09689C669.884 3.59914 666.274 3 662.087 3C644.041 3 629.314 18.7276 629.314 38.05C629.314 45.5393 631.48 53.1783 635.667 61.117C639.709 68.3067 639.709 68.4565 639.709 70.7033C639.709 75.0471 635.955 78.4921 631.191 78.4921C628.592 78.4921 626.86 77.8929 623.684 75.796V104.555C628.592 107.101 632.346 108 637.399 108C656.89 108 671.761 92.7219 671.761 72.6506C671.761 65.9102 670.172 60.3681 665.841 52.5792C661.366 44.4907 661.077 43.8915 661.077 40.8958C661.077 36.4022 664.686 32.5078 668.873 32.5078C670.317 32.5078 671.328 32.8075 673.782 33.5564V5.09689Z" fill="#3988CD"/>
<path d="M558.282 105.903C561.314 106.051 563.48 106.051 564.779 106.051C574.885 106.051 583.115 104.104 590.622 99.9101C605.926 91.2224 615.166 73.9971 615.166 54.6747C615.166 37.1497 607.514 22.1711 594.232 13.7831C585.28 8.24094 574.452 5.54492 560.303 5.54492H522.91V105.452H551.496V34.154H561.314C569.977 34.154 575.607 35.6517 579.505 38.9471C583.548 42.3922 585.858 48.084 585.858 54.6747C585.858 61.5648 583.115 68.1555 578.928 71.7504C575.03 74.8959 569.11 76.3938 560.881 76.3938H558.282V105.903Z" fill="#DB5679"/>
<path d="M503.707 5.54688H475.121V105.454H503.707V5.54688Z" fill="#F7DD3D"/>
<path d="M465.449 5.54688H436.141L415.351 50.3328L433.253 105.454H465.449L444.082 50.9321L465.449 5.54688ZM410.586 5.54688H382V105.454H410.586V5.54688Z" fill="#26BB9E"/>
</svg>
