<svg width="59" height="64" viewBox="0 0 59 64" fill="none" xmlns="http://www.w3.org/2000/svg">
<path d="M7 1.5H52C55.0376 1.5 57.5 3.96243 57.5 7V47.1866C57.5 49.4646 56.0957 51.5069 53.9686 52.3223L31.0117 61.1224C29.724 61.6161 28.2977 61.6079 27.0157 61.0995L4.97256 52.3582C2.87641 51.527 1.5 49.5005 1.5 47.2456V7C1.5 3.96243 3.96243 1.5 7 1.5Z" fill="#26A289" stroke="#26BB9E" stroke-width="3"/>
<g clip-path="url(#clip0_70_12)">
<path fill-rule="evenodd" clip-rule="evenodd" d="M30.2839 16.2375V20.2828H40.9194C42.6428 20.2828 44.052 21.7598 44.052 23.5662V27.7146H48.3113C48.689 27.7146 49 28.0373 49 28.4365V36.8463C49 37.2422 48.6921 37.5682 48.3113 37.5682H44.052V41.7166C44.052 43.523 42.6428 45 40.9194 45H17.7505C16.0271 45 14.6179 43.523 14.6179 41.7166V37.5682H10.6887C10.3079 37.5682 10 37.2455 10 36.8496V28.4365C10 28.0406 10.3079 27.7146 10.6887 27.7146H14.6179V23.5695C14.6179 21.7631 16.0271 20.2861 17.7505 20.2861H28.386V16.2375C27.1641 15.8184 26.2849 14.6174 26.2849 13.1969C26.2849 11.4305 27.6497 10 29.335 10C31.0203 10 32.385 11.4305 32.385 13.1969C32.385 14.6174 31.5027 15.8184 30.2839 16.2375ZM23.0222 36.5269H35.9746C36.6062 36.5269 37.1235 37.0692 37.1235 37.7312V38.2967C37.1235 38.9587 36.6062 39.501 35.9746 39.501H23.0222C22.3906 39.501 21.8733 38.9587 21.8733 38.2967V37.7312C21.8733 37.0659 22.3906 36.5269 23.0222 36.5269ZM34.978 25.8317C36.6824 25.8317 38.0662 27.2788 38.0662 29.0685C38.0662 30.855 36.6855 32.3021 34.978 32.3021C33.2705 32.3021 31.8931 30.855 31.8931 29.0685C31.8899 27.2788 33.2737 25.8317 34.978 25.8317ZM24.022 25.8317C25.7263 25.8317 27.1069 27.2788 27.1069 29.0685C27.1069 30.855 25.7263 32.3021 24.022 32.3021C22.3176 32.3021 20.937 30.855 20.937 29.0685C20.937 27.2788 22.3176 25.8317 24.022 25.8317Z" fill="#0F4238"/>
</g>
<defs>
<clipPath id="clip0_70_12">
<rect width="39" height="35" fill="white" transform="translate(10 10)"/>
</clipPath>
</defs>
</svg>
