<svg width="180" height="27" viewBox="0 0 180 27" fill="none" xmlns="http://www.w3.org/2000/svg">
<path d="M170.748 20.2211V13.4422H169.117V10.2453C169.117 8.31953 169.61 7.58773 170.899 7.58773C171.506 7.58773 171.999 7.89591 172.227 8.35808C172.454 8.78176 172.492 9.08986 172.492 10.2453V26.3453H180V9.74468C180 6.74039 179.507 4.62196 178.483 3.11982C177.118 1.15549 174.464 0 171.317 0C167.714 0 164.757 1.42513 163.126 3.89018C162.026 5.5849 161.609 7.31815 161.609 10.0143V26.3453H169.117V20.2211H170.748Z" fill="#3988CD"/>
<path d="M150.649 13.7889C150.308 17.3709 148.336 19.4123 145.227 19.4123C142.042 19.4123 139.729 16.9858 139.729 13.5578C139.729 10.1298 142.08 7.58773 145.265 7.58773C147.805 7.58773 149.512 9.01283 150.422 11.8245L158.461 11.2467C157.778 8.20395 157.058 6.58627 155.579 4.73747C153.19 1.7332 149.512 0 145.454 0C137.909 0 132.031 5.93151 132.031 13.5963C132.031 21.2225 137.757 27 145.379 27C152.697 27 157.513 22.2625 158.536 14.0199L150.649 13.7889Z" fill="#DB5679"/>
<path d="M128.508 0.654785H121V26.3453H128.508V0.654785Z" fill="#F6DD3D"/>
<path d="M112.467 8.01141H118.193V0.654785H99.1953V8.01141H104.959V26.3453H112.467V8.01141Z" fill="#26BB9E"/>
<path d="M9.29008 19.5664L12.2857 26.3453H20.1727L15.85 15.7918C18.1251 13.9815 19.1869 11.8631 19.1869 9.20543C19.1869 6.85592 18.163 4.42938 16.4946 2.88872C14.902 1.42511 12.5132 0.654775 9.63135 0.654775H0V26.3453H7.5079V7.58773H8.83506C9.78302 7.58773 10.3139 7.66478 10.6931 7.85735C11.2619 8.16551 11.6031 8.78175 11.6031 9.43653C11.6031 10.7461 10.8447 11.4394 9.29008 11.4779V19.5664ZM35.416 26.9615C42.431 26.4608 47.8154 20.6448 47.8154 13.5193C47.8154 6.04709 41.9381 0 34.6198 0C27.2256 0 21.2724 6.00857 21.2724 13.4808C21.2724 20.6448 26.5431 26.3452 33.6718 26.9615V19.3353C30.9037 18.8345 28.9699 16.408 28.9699 13.4808C28.9699 10.2454 31.4725 7.58773 34.5439 7.58773C37.6153 7.58773 40.118 10.2454 40.118 13.4808C40.118 16.408 38.1462 18.8731 35.416 19.3353V26.9615ZM60.632 26.3453H61.4662C64.1963 26.3453 65.5614 25.9986 67.0402 24.9587C68.8982 23.6491 69.9599 21.4922 69.9599 18.9886C69.9599 15.9458 68.557 13.7504 65.9027 12.5564C67.8744 11.0542 68.7086 9.47504 68.7086 7.20258C68.7086 2.88873 65.9027 0.654775 60.5182 0.654775H51.3419V26.3453H58.8498V7.54925H60.2528C61.5799 7.54925 62.1487 7.93439 62.1487 8.89733C62.1487 9.70617 61.6558 10.1683 60.632 10.3224V17.1784H61.5041C62.8692 17.1784 63.4 17.525 63.4 18.4109C63.4 19.4123 62.8692 19.7589 61.3145 19.7589H60.632V26.3453ZM85.7341 26.9615C92.7491 26.4608 98.1335 20.6448 98.1335 13.5193C98.1335 6.04709 92.2561 0 84.9378 0C77.5437 0 71.5904 6.00857 71.5904 13.4808C71.5904 20.6448 76.8611 26.3452 83.9898 26.9615V19.3353C81.2218 18.8345 79.2879 16.408 79.2879 13.4808C79.2879 10.2454 81.7906 7.58773 84.862 7.58773C87.9334 7.58773 90.436 10.2454 90.436 13.4808C90.436 16.408 88.4643 18.8731 85.7341 19.3353V26.9615Z" fill="white"/>
</svg>
