<svg width="89" height="15" viewBox="0 0 89 15" fill="none" xmlns="http://www.w3.org/2000/svg">
<rect x="16.9062" y="13.2095" width="2.24554" height="1.45299" transform="rotate(-90 16.9062 13.2095)" fill="black"/>
<rect x="16.9062" y="2.77441" width="2.24554" height="1.45299" transform="rotate(-90 16.9062 2.77441)" fill="black"/>
<rect x="11.2266" y="6.2085" width="2.24554" height="1.45299" fill="black"/>
<rect x="21.6602" y="6.2085" width="2.24554" height="1.45299" fill="black"/>
<rect x="11.7539" y="9.5083" width="2.24554" height="1.45299" transform="rotate(-30 11.7539 9.5083)" fill="black"/>
<rect x="20.7891" y="4.29102" width="2.24554" height="1.45299" transform="rotate(-30 20.7891 4.29102)" fill="black"/>
<rect x="13.8672" y="12.0391" width="2.24554" height="1.45299" transform="rotate(-60 13.8672 12.0391)" fill="black"/>
<rect x="19.082" y="3.00195" width="2.24554" height="1.45299" transform="rotate(-60 19.082 3.00195)" fill="black"/>
<rect x="15.1211" y="3.66211" width="2.24554" height="1.45299" transform="rotate(-120 15.1211 3.66211)" fill="black"/>
<rect x="20.3398" y="12.6997" width="2.24554" height="1.45299" transform="rotate(-120 20.3398 12.6997)" fill="black"/>
<rect x="22.7383" y="10.6519" width="2.24554" height="1.45299" transform="rotate(-150 22.7383 10.6519)" fill="black"/>
<path fill-rule="evenodd" clip-rule="evenodd" d="M19.8847 2.90647C17.6735 1.62981 14.846 2.38744 13.5694 4.59866C12.2927 6.80989 13.0503 9.63737 15.2616 10.914C17.4728 12.1907 20.3003 11.4331 21.5769 9.22183C22.8536 7.0106 22.096 4.18312 19.8847 2.90647ZM18.5653 5.19423C17.6176 4.64709 16.4058 4.97178 15.8587 5.91945C15.3116 6.86712 15.6362 8.0789 16.5839 8.62604C17.5316 9.17317 18.7434 8.84848 19.2905 7.90081C19.8376 6.95314 19.5129 5.74136 18.5653 5.19423Z" fill="black"/>
<rect x="13.6992" y="5.43506" width="2.24554" height="1.45299" transform="rotate(-150 13.6992 5.43506)" fill="black"/>
<rect x="41.8711" y="13.2095" width="2.24554" height="1.45299" transform="rotate(-90 41.8711 13.2095)" fill="black"/>
<rect x="41.8711" y="2.77441" width="2.24554" height="1.45299" transform="rotate(-90 41.8711 2.77441)" fill="black"/>
<rect x="36.1914" y="6.2085" width="2.24554" height="1.45299" fill="black"/>
<rect x="46.625" y="6.2085" width="2.24554" height="1.45299" fill="black"/>
<rect x="36.7188" y="9.5083" width="2.24554" height="1.45299" transform="rotate(-30 36.7188 9.5083)" fill="black"/>
<rect x="45.7539" y="4.29102" width="2.24554" height="1.45299" transform="rotate(-30 45.7539 4.29102)" fill="black"/>
<rect x="38.832" y="12.0391" width="2.24554" height="1.45299" transform="rotate(-60 38.832 12.0391)" fill="black"/>
<rect x="44.0469" y="3.00195" width="2.24554" height="1.45299" transform="rotate(-60 44.0469 3.00195)" fill="black"/>
<rect x="40.0859" y="3.66211" width="2.24554" height="1.45299" transform="rotate(-120 40.0859 3.66211)" fill="black"/>
<rect x="45.3047" y="12.6997" width="2.24554" height="1.45299" transform="rotate(-120 45.3047 12.6997)" fill="black"/>
<rect x="47.7031" y="10.6519" width="2.24554" height="1.45299" transform="rotate(-150 47.7031 10.6519)" fill="black"/>
<path fill-rule="evenodd" clip-rule="evenodd" d="M44.8535 2.90647C42.6423 1.62981 39.8148 2.38744 38.5381 4.59866C37.2615 6.80989 38.0191 9.63737 40.2303 10.914C42.4415 12.1907 45.269 11.4331 46.5457 9.22183C47.8223 7.0106 47.0647 4.18312 44.8535 2.90647ZM43.534 5.19423C42.5864 4.64709 41.3746 4.97178 40.8274 5.91945C40.2803 6.86712 40.605 8.0789 41.5527 8.62604C42.5003 9.17317 43.7121 8.84848 44.2593 7.90081C44.8064 6.95314 44.4817 5.74136 43.534 5.19423Z" fill="black"/>
<rect x="38.6641" y="5.43506" width="2.24554" height="1.45299" transform="rotate(-150 38.6641 5.43506)" fill="black"/>
<path d="M4.67231 9.71457L6.17887 13.1968H10.1456L7.97152 7.77562C9.11575 6.84571 9.64974 5.75751 9.64974 4.39232C9.64974 3.18541 9.13482 1.93896 8.29572 1.14755C7.49475 0.395704 6.29331 0 4.84394 0H0V13.1968H3.77598V3.56136H4.44346C4.92022 3.56136 5.18721 3.60091 5.37792 3.69983C5.66399 3.85809 5.83561 4.17468 5.83561 4.51103C5.83561 5.18373 5.4542 5.53987 4.67231 5.55966V9.71457Z" fill="black"/>
<path d="M25.2305 0.528347V8.56118C25.2305 9.76808 25.5737 11.0145 26.1077 11.8455C26.9468 13.1118 28.4915 13.923 30.0744 13.923C32.7824 13.923 34.9374 11.6873 34.9374 8.89753C34.9374 6.14737 32.7824 3.89183 30.1698 3.89183C30.0363 3.89183 29.9028 3.89184 29.5976 3.93141V7.7104C29.8074 7.63125 29.9409 7.59169 30.1125 7.59169C30.8372 7.59169 31.4093 8.20503 31.4093 8.97666C31.4093 9.74829 30.7991 10.3616 30.0553 10.3616C29.1781 10.3616 28.7204 9.68894 28.7204 8.42268V0.52832L25.2305 0.528347Z" fill="black"/>
<path d="M89.0003 0.673463C88.4854 0.475625 88.0086 0.396484 87.4556 0.396484C85.0718 0.396484 83.1266 2.47395 83.1266 5.02625C83.1266 6.01552 83.4126 7.02455 83.9657 8.07318C84.4996 9.02287 84.4996 9.04266 84.4996 9.33944C84.4996 9.91321 84.0038 10.3683 83.3745 10.3683C83.0312 10.3683 82.8024 10.2891 82.3828 10.0121V13.8109C83.0312 14.1473 83.5271 14.266 84.1945 14.266C86.7691 14.266 88.7333 12.2479 88.7333 9.59665C88.7333 8.70631 88.5235 7.97426 87.9514 6.94542C87.3602 5.87701 87.3221 5.79786 87.3221 5.40216C87.3221 4.8086 87.7989 4.29419 88.3519 4.29419C88.5426 4.29419 88.6761 4.33377 89.0003 4.43269V0.673463Z" fill="black"/>
<path d="M73.7426 13.9887C74.1431 14.0084 74.4292 14.0084 74.6008 14.0084C75.9357 14.0084 77.0228 13.7511 78.0144 13.1972C80.0359 12.0496 81.2564 9.7743 81.2564 7.22199C81.2564 4.90711 80.2457 2.92858 78.4912 1.8206C77.3088 1.08854 75.8785 0.732422 74.0096 0.732422H69.0703V13.9292H72.8463V4.51141H74.1431C75.2873 4.51141 76.0311 4.70924 76.546 5.14453C77.08 5.59959 77.3851 6.35143 77.3851 7.22199C77.3851 8.13211 77.0228 9.00268 76.4697 9.47753C75.9548 9.89302 75.1729 10.0909 74.0859 10.0909H73.7426V13.9887Z" fill="black"/>
<path d="M66.5338 0.732422H62.7578V13.9292H66.5338V0.732422Z" fill="black"/>
<path d="M61.4799 0.732422H57.6085L54.8624 6.64822L57.2271 13.9292H61.4799L58.6574 6.72738L61.4799 0.732422ZM54.233 0.732422H50.457V13.9292H54.233V0.732422Z" fill="black"/>
</svg>
